solid OpenSCAD_Model
  facet normal -1 0 0
    outer loop
      vertex -8 10 0
      vertex -8 10 10
      vertex -8 30 0
    endloop
  endfacet
  facet normal -1 0 0
    outer loop
      vertex -8 30 0
      vertex -8 10 10
      vertex -8 30 10
    endloop
  endfacet
  facet normal 0 -1 0
    outer loop
      vertex -8 10 10
      vertex -8 10 0
      vertex -7.87491 10 0
    endloop
  endfacet
  facet normal 0 -1 0
    outer loop
      vertex -7.87491 10 10
      vertex -8 10 10
      vertex -7.87491 10 0
    endloop
  endfacet
  facet normal 0 0 -1
    outer loop
      vertex -8 10 0
      vertex -8 30 0
      vertex -7.87491 10 0
    endloop
  endfacet
  facet normal 0 0 -1
    outer loop
      vertex -7.87491 10 0
      vertex -8 30 0
      vertex -7.87491 30 0
    endloop
  endfacet
  facet normal 0 0 -1
    outer loop
      vertex -7.87491 30 0
      vertex -7.87491 30.9948 0
      vertex -7.3801 32.922 0
    endloop
  endfacet
  facet normal 0 0 -1
    outer loop
      vertex -7.87491 30 0
      vertex -7.3801 32.922 0
      vertex -7.87491 10 0
    endloop
  endfacet
  facet normal 0 0 -1
    outer loop
      vertex -7.87491 10 0
      vertex -7.3801 32.922 0
      vertex -6.42157 34.6655 0
    endloop
  endfacet
  facet normal 0 0 -1
    outer loop
      vertex -7.87491 10 0
      vertex -6.42157 34.6655 0
      vertex -5.05955 36.1159 0
    endloop
  endfacet
  facet normal 0 0 -1
    outer loop
      vertex -4.65843 30.9902 0
      vertex -5.05955 36.1159 0
      vertex -3.37962 37.1821 0
    endloop
  endfacet
  facet normal 0 0 -1
    outer loop
      vertex -3.85294 32.7993 0
      vertex -3.37962 37.1821 0
      vertex -1.48734 37.7969 0
    endloop
  endfacet
  facet normal 0 0 -1
    outer loop
      vertex 0 37.8905 0
      vertex 0 38 0
      vertex 8 38 0
    endloop
  endfacet
  facet normal 0 0 -1
    outer loop
      vertex 8 44.5 0
      vertex 8.33169 46.3811 0
      vertex 8 38 0
    endloop
  endfacet
  facet normal 0 0 -1
    outer loop
      vertex 8 38 0
      vertex 8.33169 46.3811 0
      vertex 9.28676 48.0353 0
    endloop
  endfacet
  facet normal 0 0 -1
    outer loop
      vertex 8 38 0
      vertex 9.28676 48.0353 0
      vertex 10.75 49.2631 0
    endloop
  endfacet
  facet normal 0 0 -1
    outer loop
      vertex 8 38 0
      vertex 10.75 49.2631 0
      vertex 12.5449 49.9164 0
    endloop
  endfacet
  facet normal 0 0 -1
    outer loop
      vertex 8 38 0
      vertex 12.5449 49.9164 0
      vertex 14.4551 49.9164 0
    endloop
  endfacet
  facet normal 0 0 -1
    outer loop
      vertex 12.65 45.9722 0
      vertex 14.4551 49.9164 0
      vertex 16.25 49.2631 0
    endloop
  endfacet
  facet normal 0 0 -1
    outer loop
      vertex 15.2 44.5 0
      vertex 16.25 49.2631 0
      vertex 17.7132 48.0353 0
    endloop
  endfacet
  facet normal 0 0 -1
    outer loop
      vertex 4.35076 28.0629 0
      vertex 17.7132 48.0353 0
      vertex 18.6683 46.3811 0
    endloop
  endfacet
  facet normal 0 0 -1
    outer loop
      vertex -7.87491 10 0
      vertex 18.6683 46.3811 0
      vertex 19 44.5 0
    endloop
  endfacet
  facet normal 0 0 -1
    outer loop
      vertex -7.87491 10 0
      vertex 19 44.5 0
      vertex 18.6683 42.6189 0
    endloop
  endfacet
  facet normal 0 0 -1
    outer loop
      vertex 17 40.3662 0
      vertex 18.6683 42.6189 0
      vertex 17.7132 40.9647 0
    endloop
  endfacet
  facet normal 0 0 -1
    outer loop
      vertex -7.87491 10 0
      vertex 18.6683 42.6189 0
      vertex 17 40.3662 0
    endloop
  endfacet
  facet normal 0 0 -1
    outer loop
      vertex 15.2 13.5 0
      vertex 19 13.5 0
      vertex 14.35 12.0278 0
    endloop
  endfacet
  facet normal 0 0 -1
    outer loop
      vertex -4.65843 9.00982 0
      vertex -7.87491 10 0
      vertex -4.65843 10.9902 0
    endloop
  endfacet
  facet normal 0 0 -1
    outer loop
      vertex 14.35 14.9722 0
      vertex 17.7132 17.0353 0
      vertex 18.6683 15.3811 0
    endloop
  endfacet
  facet normal 0 0 -1
    outer loop
      vertex 12.65 43.0278 0
      vertex 4.35076 31.9371 0
      vertex 8 38 0
    endloop
  endfacet
  facet normal 0 0 -1
    outer loop
      vertex 14.35 12.0278 0
      vertex 19 13.5 0
      vertex 18.6683 11.6189 0
    endloop
  endfacet
  facet normal 0 0 -1
    outer loop
      vertex 4.7625 10 0
      vertex 18.6683 11.6189 0
      vertex 17.7132 9.96467 0
    endloop
  endfacet
  facet normal 0 0 -1
    outer loop
      vertex 17 17.6338 0
      vertex 3.18673 13.5392 0
      vertex 1.47169 14.5294 0
    endloop
  endfacet
  facet normal 0 0 -1
    outer loop
      vertex 17 17.6338 0
      vertex 1.47169 14.5294 0
      vertex -0.497817 14.7364 0
    endloop
  endfacet
  facet normal 0 0 -1
    outer loop
      vertex -2.38125 14.1244 0
      vertex -7.87491 10 0
      vertex 17 40.3662 0
    endloop
  endfacet
  facet normal 0 0 -1
    outer loop
      vertex -0.497817 14.7364 0
      vertex -2.38125 14.1244 0
      vertex 17 40.3662 0
    endloop
  endfacet
  facet normal 0 0 -1
    outer loop
      vertex 17 17.6338 0
      vertex -0.497817 14.7364 0
      vertex 17 40.3662 0
    endloop
  endfacet
  facet normal 0 0 -1
    outer loop
      vertex 3.18673 13.5392 0
      vertex 17 17.6338 0
      vertex 17.7132 17.0353 0
    endloop
  endfacet
  facet normal 0 0 -1
    outer loop
      vertex 4.35076 11.9371 0
      vertex 12.65 12.0278 0
      vertex 18.6683 11.6189 0
    endloop
  endfacet
  facet normal 0 0 -1
    outer loop
      vertex 14.35 14.9722 0
      vertex 18.6683 15.3811 0
      vertex 15.2 13.5 0
    endloop
  endfacet
  facet normal 0 0 -1
    outer loop
      vertex 4.7625 10 0
      vertex 16.25 8.73686 0
      vertex 14.4551 8.08356 0
    endloop
  endfacet
  facet normal 0 0 -1
    outer loop
      vertex 4.7625 10 0
      vertex 14.4551 8.08356 0
      vertex 14 8.08356 0
    endloop
  endfacet
  facet normal 0 0 -1
    outer loop
      vertex 12.65 45.9722 0
      vertex 16.25 49.2631 0
      vertex 14.35 45.9722 0
    endloop
  endfacet
  facet normal 0 0 -1
    outer loop
      vertex 4.35076 8.06292 0
      vertex 6.95568 6.17608 0
      vertex 3.18673 6.46077 0
    endloop
  endfacet
  facet normal 0 0 -1
    outer loop
      vertex 3.18673 13.5392 0
      vertex 17.7132 17.0353 0
      vertex 12.65 14.9722 0
    endloop
  endfacet
  facet normal 0 0 -1
    outer loop
      vertex 1.47169 5.47059 0
      vertex 4.25312 3.29815 0
      vertex -0.497817 5.26359 0
    endloop
  endfacet
  facet normal 0 0 -1
    outer loop
      vertex 4.35076 11.9371 0
      vertex 18.6683 11.6189 0
      vertex 4.7625 10 0
    endloop
  endfacet
  facet normal 0 0 -1
    outer loop
      vertex 2.45282 2.45099 0
      vertex 0.4984 2.07816 0
      vertex -2.38125 5.87555 0
    endloop
  endfacet
  facet normal 0 0 -1
    outer loop
      vertex 4.25312 3.29815 0
      vertex 2.45282 2.45099 0
      vertex -0.497817 5.26359 0
    endloop
  endfacet
  facet normal 0 0 -1
    outer loop
      vertex 5.78619 4.56641 0
      vertex 4.25312 3.29815 0
      vertex 1.47169 5.47059 0
    endloop
  endfacet
  facet normal 0 0 -1
    outer loop
      vertex 4.7625 10 0
      vertex 17.7132 9.96467 0
      vertex 16.25 8.73686 0
    endloop
  endfacet
  facet normal 0 0 -1
    outer loop
      vertex 6.95568 6.17608 0
      vertex 5.78619 4.56641 0
      vertex 3.18673 6.46077 0
    endloop
  endfacet
  facet normal 0 0 -1
    outer loop
      vertex 4.7625 10 0
      vertex 14 8.08356 0
      vertex 14 8 0
    endloop
  endfacet
  facet normal 0 0 -1
    outer loop
      vertex 7.67783 8 0
      vertex 6.95568 6.17608 0
      vertex 4.35076 8.06292 0
    endloop
  endfacet
  facet normal 0 0 -1
    outer loop
      vertex -4.65843 29.0098 0
      vertex -7.87491 10 0
      vertex -4.65843 30.9902 0
    endloop
  endfacet
  facet normal 0 0 -1
    outer loop
      vertex -4.65843 30.9902 0
      vertex -3.37962 37.1821 0
      vertex -3.85294 32.7993 0
    endloop
  endfacet
  facet normal 0 0 -1
    outer loop
      vertex 15.2 44.5 0
      vertex 17.7132 48.0353 0
      vertex 14.35 43.0278 0
    endloop
  endfacet
  facet normal 0 0 -1
    outer loop
      vertex 4.7625 30 0
      vertex 14.35 43.0278 0
      vertex 4.35076 28.0629 0
    endloop
  endfacet
  facet normal 0 0 -1
    outer loop
      vertex -7.87491 10 0
      vertex -2.38125 14.1244 0
      vertex -3.85294 12.7993 0
    endloop
  endfacet
  facet normal 0 0 -1
    outer loop
      vertex -7.87491 10 0
      vertex -3.85294 12.7993 0
      vertex -4.65843 10.9902 0
    endloop
  endfacet
  facet normal 0 0 -1
    outer loop
      vertex -7.87491 10 0
      vertex -5.05955 36.1159 0
      vertex -4.65843 30.9902 0
    endloop
  endfacet
  facet normal 0 0 -1
    outer loop
      vertex -3.85294 27.2007 0
      vertex -7.87491 10 0
      vertex -4.65843 29.0098 0
    endloop
  endfacet
  facet normal 0 0 -1
    outer loop
      vertex -3.85294 32.7993 0
      vertex -1.48734 37.7969 0
      vertex -2.38125 34.1244 0
    endloop
  endfacet
  facet normal 0 0 -1
    outer loop
      vertex 11.8 13.5 0
      vertex 3.18673 13.5392 0
      vertex 12.65 14.9722 0
    endloop
  endfacet
  facet normal 0 0 -1
    outer loop
      vertex -2.38125 25.8756 0
      vertex -7.87491 10 0
      vertex -3.85294 27.2007 0
    endloop
  endfacet
  facet normal 0 0 -1
    outer loop
      vertex 3.18673 33.5392 0
      vertex 8 38 0
      vertex 4.35076 31.9371 0
    endloop
  endfacet
  facet normal 0 0 -1
    outer loop
      vertex -2.38125 34.1244 0
      vertex -1.48734 37.7969 0
      vertex 0 37.8905 0
    endloop
  endfacet
  facet normal 0 0 -1
    outer loop
      vertex 1.47169 25.4706 0
      vertex -7.87491 10 0
      vertex -0.497817 25.2636 0
    endloop
  endfacet
  facet normal 0 0 -1
    outer loop
      vertex -2.38125 34.1244 0
      vertex 0 37.8905 0
      vertex -0.497817 34.7364 0
    endloop
  endfacet
  facet normal 0 0 -1
    outer loop
      vertex -2.38125 25.8756 0
      vertex -0.497817 25.2636 0
      vertex -7.87491 10 0
    endloop
  endfacet
  facet normal 0 0 -1
    outer loop
      vertex 3.18673 26.4608 0
      vertex -7.87491 10 0
      vertex 1.47169 25.4706 0
    endloop
  endfacet
  facet normal 0 0 -1
    outer loop
      vertex 14.35 43.0278 0
      vertex 17.7132 48.0353 0
      vertex 4.35076 28.0629 0
    endloop
  endfacet
  facet normal 0 0 -1
    outer loop
      vertex -7.87491 10 0
      vertex 4.35076 28.0629 0
      vertex 18.6683 46.3811 0
    endloop
  endfacet
  facet normal 0 0 -1
    outer loop
      vertex 4.35076 28.0629 0
      vertex -7.87491 10 0
      vertex 3.18673 26.4608 0
    endloop
  endfacet
  facet normal 0 0 -1
    outer loop
      vertex 0 37.8905 0
      vertex 8 38 0
      vertex 3.18673 33.5392 0
    endloop
  endfacet
  facet normal 0 0 -1
    outer loop
      vertex 0 37.8905 0
      vertex 3.18673 33.5392 0
      vertex 1.47169 34.5294 0
    endloop
  endfacet
  facet normal 0 0 -1
    outer loop
      vertex 0 37.8905 0
      vertex 1.47169 34.5294 0
      vertex -0.497817 34.7364 0
    endloop
  endfacet
  facet normal 0 0 -1
    outer loop
      vertex 12.65 43.0278 0
      vertex 4.7625 30 0
      vertex 4.35076 31.9371 0
    endloop
  endfacet
  facet normal 0 0 -1
    outer loop
      vertex 11.8 13.5 0
      vertex 4.35076 11.9371 0
      vertex 3.18673 13.5392 0
    endloop
  endfacet
  facet normal 0 0 -1
    outer loop
      vertex 12.65 12.0278 0
      vertex 4.35076 11.9371 0
      vertex 11.8 13.5 0
    endloop
  endfacet
  facet normal 0 0 -1
    outer loop
      vertex 15.2 13.5 0
      vertex 18.6683 15.3811 0
      vertex 19 13.5 0
    endloop
  endfacet
  facet normal 0 0 -1
    outer loop
      vertex 12.65 12.0278 0
      vertex 14.35 12.0278 0
      vertex 18.6683 11.6189 0
    endloop
  endfacet
  facet normal 0 0 -1
    outer loop
      vertex 12.65 43.0278 0
      vertex 8 38 0
      vertex 11.8 44.5 0
    endloop
  endfacet
  facet normal 0 0 -1
    outer loop
      vertex 12.65 14.9722 0
      vertex 17.7132 17.0353 0
      vertex 14.35 14.9722 0
    endloop
  endfacet
  facet normal 0 0 -1
    outer loop
      vertex 8 38 0
      vertex 14.4551 49.9164 0
      vertex 11.8 44.5 0
    endloop
  endfacet
  facet normal 0 0 -1
    outer loop
      vertex 14.35 43.0278 0
      vertex 4.7625 30 0
      vertex 12.65 43.0278 0
    endloop
  endfacet
  facet normal 0 0 -1
    outer loop
      vertex 14.35 45.9722 0
      vertex 16.25 49.2631 0
      vertex 15.2 44.5 0
    endloop
  endfacet
  facet normal 0 0 -1
    outer loop
      vertex 11.8 44.5 0
      vertex 14.4551 49.9164 0
      vertex 12.65 45.9722 0
    endloop
  endfacet
  facet normal 0 0 -1
    outer loop
      vertex 4.7625 10 0
      vertex 7.67783 8 0
      vertex 4.35076 8.06292 0
    endloop
  endfacet
  facet normal 0 0 -1
    outer loop
      vertex 3.18673 6.46077 0
      vertex 5.78619 4.56641 0
      vertex 1.47169 5.47059 0
    endloop
  endfacet
  facet normal 0 0 -1
    outer loop
      vertex -3.85294 7.20067 0
      vertex -7.87491 10 0
      vertex -4.65843 9.00982 0
    endloop
  endfacet
  facet normal 0 0 -1
    outer loop
      vertex 4.7625 10 0
      vertex 14 8 0
      vertex 7.67783 8 0
    endloop
  endfacet
  facet normal 0 0 -1
    outer loop
      vertex -2.38125 5.87555 0
      vertex -7.87491 10 0
      vertex -3.85294 7.20067 0
    endloop
  endfacet
  facet normal 0 0 -1
    outer loop
      vertex -0.497817 5.26359 0
      vertex 2.45282 2.45099 0
      vertex -2.38125 5.87555 0
    endloop
  endfacet
  facet normal 0 0 -1
    outer loop
      vertex -7.87491 10 0
      vertex -2.38125 5.87555 0
      vertex 0.4984 2.07816 0
    endloop
  endfacet
  facet normal 0 0 -1
    outer loop
      vertex -7.87491 10 0
      vertex 0.4984 2.07816 0
      vertex -1.48734 2.2031 0
    endloop
  endfacet
  facet normal 0 0 -1
    outer loop
      vertex -7.87491 10 0
      vertex -1.48734 2.2031 0
      vertex -3.37962 2.81794 0
    endloop
  endfacet
  facet normal 0 0 -1
    outer loop
      vertex -7.87491 10 0
      vertex -3.37962 2.81794 0
      vertex -5.05955 3.88405 0
    endloop
  endfacet
  facet normal 0 0 -1
    outer loop
      vertex -7.87491 10 0
      vertex -5.05955 3.88405 0
      vertex -6.42157 5.33446 0
    endloop
  endfacet
  facet normal 0 0 -1
    outer loop
      vertex -7.87491 10 0
      vertex -6.42157 5.33446 0
      vertex -7.3801 7.07801 0
    endloop
  endfacet
  facet normal 0 0 -1
    outer loop
      vertex -7.87491 10 0
      vertex -7.3801 7.07801 0
      vertex -7.87491 9.00517 0
    endloop
  endfacet
  facet normal 0 1 0
    outer loop
      vertex -8 30 0
      vertex -8 30 10
      vertex -7.87491 30 0
    endloop
  endfacet
  facet normal 0 1 0
    outer loop
      vertex -7.87491 30 0
      vertex -8 30 10
      vertex -7.87491 30 10
    endloop
  endfacet
  facet normal 0 0 1
    outer loop
      vertex 7.67783 8 10
      vertex 14 8 10
      vertex -8 30 10
    endloop
  endfacet
  facet normal 0 0 1
    outer loop
      vertex -8 30 10
      vertex -8 10 10
      vertex -7.87491 10 10
    endloop
  endfacet
  facet normal 0 0 1
    outer loop
      vertex -7.3801 7.07801 10
      vertex -8 30 10
      vertex -7.87491 10 10
    endloop
  endfacet
  facet normal 0 0 1
    outer loop
      vertex -7.87491 9.00517 10
      vertex -7.3801 7.07801 10
      vertex -7.87491 10 10
    endloop
  endfacet
  facet normal 0 0 1
    outer loop
      vertex -7.3801 7.07801 10
      vertex -6.42157 5.33446 10
      vertex -8 30 10
    endloop
  endfacet
  facet normal 0 0 1
    outer loop
      vertex -6.42157 5.33446 10
      vertex -5.05955 3.88405 10
      vertex -8 30 10
    endloop
  endfacet
  facet normal 0 0 1
    outer loop
      vertex -0.497817 5.26359 10
      vertex -2.38125 5.87555 10
      vertex -1.48734 2.2031 10
    endloop
  endfacet
  facet normal 0 0 1
    outer loop
      vertex 13.0019 16.9644 10
      vertex 14.954 16.6837 10
      vertex 1.47169 25.4706 10
    endloop
  endfacet
  facet normal 0 0 1
    outer loop
      vertex -0.497817 14.7364 10
      vertex 1.47169 14.5294 10
      vertex -8 30 10
    endloop
  endfacet
  facet normal 0 0 1
    outer loop
      vertex 4.35076 8.06292 10
      vertex 3.18673 6.46077 10
      vertex 5.78619 4.56641 10
    endloop
  endfacet
  facet normal 0 0 1
    outer loop
      vertex 3.18673 13.5392 10
      vertex 7.67783 8 10
      vertex -8 30 10
    endloop
  endfacet
  facet normal 0 0 1
    outer loop
      vertex 10.1418 12.5139 10
      vertex 10.1418 14.4861 10
      vertex -8 30 10
    endloop
  endfacet
  facet normal 0 0 1
    outer loop
      vertex 10.1418 14.4861 10
      vertex 11.208 16.1451 10
      vertex -2.38125 25.8756 10
    endloop
  endfacet
  facet normal 0 0 1
    outer loop
      vertex -4.65843 9.00982 10
      vertex -4.65843 10.9902 10
      vertex -8 30 10
    endloop
  endfacet
  facet normal 0 0 1
    outer loop
      vertex 10.1418 14.4861 10
      vertex -2.38125 25.8756 10
      vertex -8 30 10
    endloop
  endfacet
  facet normal 0 0 1
    outer loop
      vertex 11.208 16.1451 10
      vertex 13.0019 16.9644 10
      vertex -0.497817 25.2636 10
    endloop
  endfacet
  facet normal 0 0 1
    outer loop
      vertex 11.208 47.1451 10
      vertex 13.0019 47.9644 10
      vertex 14.4551 49.9164 10
    endloop
  endfacet
  facet normal 0 0 1
    outer loop
      vertex -4.65843 30.9902 10
      vertex -3.85294 32.7993 10
      vertex -7.87491 30.9948 10
    endloop
  endfacet
  facet normal 0 0 1
    outer loop
      vertex -4.65843 30.9902 10
      vertex -7.87491 30.9948 10
      vertex -7.87491 30 10
    endloop
  endfacet
  facet normal 0 0 1
    outer loop
      vertex -3.85294 7.20067 10
      vertex -4.65843 9.00982 10
      vertex -3.37962 2.81794 10
    endloop
  endfacet
  facet normal 0 0 1
    outer loop
      vertex -3.85294 27.2007 10
      vertex -7.87491 30 10
      vertex -8 30 10
    endloop
  endfacet
  facet normal 0 0 1
    outer loop
      vertex 8 38 10
      vertex 0 38 10
      vertex 0 37.8905 10
    endloop
  endfacet
  facet normal 0 0 1
    outer loop
      vertex -0.497817 34.7364 10
      vertex 1.47169 34.5294 10
      vertex 8 38 10
    endloop
  endfacet
  facet normal 0 0 1
    outer loop
      vertex 16.4444 15.3922 10
      vertex 17 13.5 10
      vertex 19 13.5 10
    endloop
  endfacet
  facet normal 0 0 1
    outer loop
      vertex -7.87491 30.9948 10
      vertex -5.05955 36.1159 10
      vertex -6.42157 34.6655 10
    endloop
  endfacet
  facet normal 0 0 1
    outer loop
      vertex 12.5449 49.9164 10
      vertex 10.75 49.2631 10
      vertex 8.33169 46.3811 10
    endloop
  endfacet
  facet normal 0 0 1
    outer loop
      vertex 14.4551 49.9164 10
      vertex 12.5449 49.9164 10
      vertex 8 44.5 10
    endloop
  endfacet
  facet normal 0 0 1
    outer loop
      vertex -7.87491 30.9948 10
      vertex -3.37962 37.1821 10
      vertex -5.05955 36.1159 10
    endloop
  endfacet
  facet normal 0 0 1
    outer loop
      vertex 8 38 10
      vertex -2.38125 34.1244 10
      vertex -0.497817 34.7364 10
    endloop
  endfacet
  facet normal 0 0 1
    outer loop
      vertex 17 13.5 10
      vertex 16.4444 11.6078 10
      vertex 18.6683 11.6189 10
    endloop
  endfacet
  facet normal 0 0 1
    outer loop
      vertex -5.05955 3.88405 10
      vertex -4.65843 9.00982 10
      vertex -8 30 10
    endloop
  endfacet
  facet normal 0 0 1
    outer loop
      vertex -5.05955 3.88405 10
      vertex -3.37962 2.81794 10
      vertex -4.65843 9.00982 10
    endloop
  endfacet
  facet normal 0 0 1
    outer loop
      vertex 1.47169 25.4706 10
      vertex 17.7132 17.0353 10
      vertex 17 17.6338 10
    endloop
  endfacet
  facet normal 0 0 1
    outer loop
      vertex -2.38125 5.87555 10
      vertex -3.85294 7.20067 10
      vertex -1.48734 2.2031 10
    endloop
  endfacet
  facet normal 0 0 1
    outer loop
      vertex -0.497817 5.26359 10
      vertex -1.48734 2.2031 10
      vertex 0.4984 2.07816 10
    endloop
  endfacet
  facet normal 0 0 1
    outer loop
      vertex 3.18673 6.46077 10
      vertex 1.47169 5.47059 10
      vertex 4.25312 3.29815 10
    endloop
  endfacet
  facet normal 0 0 1
    outer loop
      vertex 4.35076 11.9371 10
      vertex 7.67783 8 10
      vertex 3.18673 13.5392 10
    endloop
  endfacet
  facet normal 0 0 1
    outer loop
      vertex 4.7625 10 10
      vertex 4.35076 8.06292 10
      vertex 6.95568 6.17608 10
    endloop
  endfacet
  facet normal 0 0 1
    outer loop
      vertex 6.95568 6.17608 10
      vertex 7.67783 8 10
      vertex 4.35076 11.9371 10
    endloop
  endfacet
  facet normal 0 0 1
    outer loop
      vertex 4.35076 11.9371 10
      vertex 4.7625 10 10
      vertex 6.95568 6.17608 10
    endloop
  endfacet
  facet normal 0 0 1
    outer loop
      vertex 1.47169 5.47059 10
      vertex -0.497817 5.26359 10
      vertex 0.4984 2.07816 10
    endloop
  endfacet
  facet normal 0 0 1
    outer loop
      vertex 5.78619 4.56641 10
      vertex 6.95568 6.17608 10
      vertex 4.35076 8.06292 10
    endloop
  endfacet
  facet normal 0 0 1
    outer loop
      vertex 1.47169 5.47059 10
      vertex 0.4984 2.07816 10
      vertex 2.45282 2.45099 10
    endloop
  endfacet
  facet normal 0 0 1
    outer loop
      vertex 4.25312 3.29815 10
      vertex 5.78619 4.56641 10
      vertex 3.18673 6.46077 10
    endloop
  endfacet
  facet normal 0 0 1
    outer loop
      vertex 1.47169 14.5294 10
      vertex 3.18673 13.5392 10
      vertex -8 30 10
    endloop
  endfacet
  facet normal 0 0 1
    outer loop
      vertex 2.45282 2.45099 10
      vertex 4.25312 3.29815 10
      vertex 1.47169 5.47059 10
    endloop
  endfacet
  facet normal 0 0 1
    outer loop
      vertex -3.85294 12.7993 10
      vertex -2.38125 14.1244 10
      vertex -8 30 10
    endloop
  endfacet
  facet normal 0 0 1
    outer loop
      vertex 1.47169 25.4706 10
      vertex 18.6683 15.3811 10
      vertex 17.7132 17.0353 10
    endloop
  endfacet
  facet normal 0 0 1
    outer loop
      vertex -4.65843 10.9902 10
      vertex -3.85294 12.7993 10
      vertex -8 30 10
    endloop
  endfacet
  facet normal 0 0 1
    outer loop
      vertex -3.37962 2.81794 10
      vertex -1.48734 2.2031 10
      vertex -3.85294 7.20067 10
    endloop
  endfacet
  facet normal 0 0 1
    outer loop
      vertex -4.65843 29.0098 10
      vertex -4.65843 30.9902 10
      vertex -7.87491 30 10
    endloop
  endfacet
  facet normal 0 0 1
    outer loop
      vertex -2.38125 25.8756 10
      vertex -3.85294 27.2007 10
      vertex -8 30 10
    endloop
  endfacet
  facet normal 0 0 1
    outer loop
      vertex 1.47169 34.5294 10
      vertex 17.7132 40.9647 10
      vertex 18.6683 42.6189 10
    endloop
  endfacet
  facet normal 0 0 1
    outer loop
      vertex -7.87491 30.9948 10
      vertex -1.48734 37.7969 10
      vertex -3.37962 37.1821 10
    endloop
  endfacet
  facet normal 0 0 1
    outer loop
      vertex -7.87491 30.9948 10
      vertex -2.38125 34.1244 10
      vertex 0 37.8905 10
    endloop
  endfacet
  facet normal 0 0 1
    outer loop
      vertex -2.38125 14.1244 10
      vertex -0.497817 14.7364 10
      vertex -8 30 10
    endloop
  endfacet
  facet normal 0 0 1
    outer loop
      vertex 18.6683 42.6189 10
      vertex 8 38 10
      vertex 1.47169 34.5294 10
    endloop
  endfacet
  facet normal 0 0 1
    outer loop
      vertex 3.18673 26.4608 10
      vertex 1.47169 25.4706 10
      vertex 17 17.6338 10
    endloop
  endfacet
  facet normal 0 0 1
    outer loop
      vertex 17 17.6338 10
      vertex 17 40.3662 10
      vertex 4.35076 31.9371 10
    endloop
  endfacet
  facet normal 0 0 1
    outer loop
      vertex 17 17.6338 10
      vertex 4.35076 31.9371 10
      vertex 4.7625 30 10
    endloop
  endfacet
  facet normal 0 0 1
    outer loop
      vertex 17 17.6338 10
      vertex 4.7625 30 10
      vertex 4.35076 28.0629 10
    endloop
  endfacet
  facet normal 0 0 1
    outer loop
      vertex 1.47169 25.4706 10
      vertex 14.954 16.6837 10
      vertex 18.6683 15.3811 10
    endloop
  endfacet
  facet normal 0 0 1
    outer loop
      vertex 17 17.6338 10
      vertex 4.35076 28.0629 10
      vertex 3.18673 26.4608 10
    endloop
  endfacet
  facet normal 0 0 1
    outer loop
      vertex 3.18673 33.5392 10
      vertex 4.35076 31.9371 10
      vertex 17 40.3662 10
    endloop
  endfacet
  facet normal 0 0 1
    outer loop
      vertex 17 44.5 10
      vertex 16.4444 42.6078 10
      vertex 19 44.5 10
    endloop
  endfacet
  facet normal 0 0 1
    outer loop
      vertex 11.208 16.1451 10
      vertex -0.497817 25.2636 10
      vertex -2.38125 25.8756 10
    endloop
  endfacet
  facet normal 0 0 1
    outer loop
      vertex 13.0019 16.9644 10
      vertex 1.47169 25.4706 10
      vertex -0.497817 25.2636 10
    endloop
  endfacet
  facet normal 0 0 1
    outer loop
      vertex 11.208 10.8549 10
      vertex 10.1418 12.5139 10
      vertex -8 30 10
    endloop
  endfacet
  facet normal 0 0 1
    outer loop
      vertex 13.0019 10.0356 10
      vertex 14 8.08356 10
      vertex 14.4551 8.08356 10
    endloop
  endfacet
  facet normal 0 0 1
    outer loop
      vertex 19 13.5 10
      vertex 18.6683 15.3811 10
      vertex 14.954 16.6837 10
    endloop
  endfacet
  facet normal 0 0 1
    outer loop
      vertex 19 13.5 10
      vertex 14.954 16.6837 10
      vertex 16.4444 15.3922 10
    endloop
  endfacet
  facet normal 0 0 1
    outer loop
      vertex 16.4444 11.6078 10
      vertex 14.954 10.3163 10
      vertex 17.7132 9.96467 10
    endloop
  endfacet
  facet normal 0 0 1
    outer loop
      vertex 18.6683 11.6189 10
      vertex 19 13.5 10
      vertex 17 13.5 10
    endloop
  endfacet
  facet normal 0 0 1
    outer loop
      vertex 14.954 10.3163 10
      vertex 13.0019 10.0356 10
      vertex 16.25 8.73686 10
    endloop
  endfacet
  facet normal 0 0 1
    outer loop
      vertex 17.7132 9.96467 10
      vertex 18.6683 11.6189 10
      vertex 16.4444 11.6078 10
    endloop
  endfacet
  facet normal 0 0 1
    outer loop
      vertex 13.0019 10.0356 10
      vertex 11.208 10.8549 10
      vertex 14 8.08356 10
    endloop
  endfacet
  facet normal 0 0 1
    outer loop
      vertex 16.25 8.73686 10
      vertex 17.7132 9.96467 10
      vertex 14.954 10.3163 10
    endloop
  endfacet
  facet normal 0 0 1
    outer loop
      vertex 13.0019 47.9644 10
      vertex 14.954 47.6837 10
      vertex 16.25 49.2631 10
    endloop
  endfacet
  facet normal 0 0 1
    outer loop
      vertex 14.4551 8.08356 10
      vertex 16.25 8.73686 10
      vertex 13.0019 10.0356 10
    endloop
  endfacet
  facet normal 0 0 1
    outer loop
      vertex 14 8 10
      vertex 11.208 10.8549 10
      vertex -8 30 10
    endloop
  endfacet
  facet normal 0 0 1
    outer loop
      vertex 14 8 10
      vertex 14 8.08356 10
      vertex 11.208 10.8549 10
    endloop
  endfacet
  facet normal 0 0 1
    outer loop
      vertex 1.47169 34.5294 10
      vertex 17 40.3662 10
      vertex 17.7132 40.9647 10
    endloop
  endfacet
  facet normal 0 0 1
    outer loop
      vertex 14.4551 49.9164 10
      vertex 8 44.5 10
      vertex 11.208 47.1451 10
    endloop
  endfacet
  facet normal 0 0 1
    outer loop
      vertex 16.4444 46.3922 10
      vertex 17 44.5 10
      vertex 18.6683 46.3811 10
    endloop
  endfacet
  facet normal 0 0 1
    outer loop
      vertex 16.25 49.2631 10
      vertex 14.4551 49.9164 10
      vertex 13.0019 47.9644 10
    endloop
  endfacet
  facet normal 0 0 1
    outer loop
      vertex 17.7132 48.0353 10
      vertex 16.25 49.2631 10
      vertex 14.954 47.6837 10
    endloop
  endfacet
  facet normal 0 0 1
    outer loop
      vertex 1.47169 34.5294 10
      vertex 3.18673 33.5392 10
      vertex 17 40.3662 10
    endloop
  endfacet
  facet normal 0 0 1
    outer loop
      vertex 18.6683 46.3811 10
      vertex 17.7132 48.0353 10
      vertex 16.4444 46.3922 10
    endloop
  endfacet
  facet normal 0 0 1
    outer loop
      vertex 8 38 10
      vertex 0 37.8905 10
      vertex -2.38125 34.1244 10
    endloop
  endfacet
  facet normal 0 0 1
    outer loop
      vertex 19 44.5 10
      vertex 18.6683 46.3811 10
      vertex 17 44.5 10
    endloop
  endfacet
  facet normal 0 0 1
    outer loop
      vertex 18.6683 42.6189 10
      vertex 19 44.5 10
      vertex 16.4444 42.6078 10
    endloop
  endfacet
  facet normal 0 0 1
    outer loop
      vertex 18.6683 42.6189 10
      vertex 14.954 41.3163 10
      vertex 8 38 10
    endloop
  endfacet
  facet normal 0 0 1
    outer loop
      vertex 18.6683 42.6189 10
      vertex 16.4444 42.6078 10
      vertex 14.954 41.3163 10
    endloop
  endfacet
  facet normal 0 0 1
    outer loop
      vertex 14.954 41.3163 10
      vertex 13.0019 41.0356 10
      vertex 8 38 10
    endloop
  endfacet
  facet normal 0 0 1
    outer loop
      vertex -7.87491 30.9948 10
      vertex 0 37.8905 10
      vertex -1.48734 37.7969 10
    endloop
  endfacet
  facet normal 0 0 1
    outer loop
      vertex -7.87491 30.9948 10
      vertex -3.85294 32.7993 10
      vertex -2.38125 34.1244 10
    endloop
  endfacet
  facet normal 0 0 1
    outer loop
      vertex -7.87491 30.9948 10
      vertex -6.42157 34.6655 10
      vertex -7.3801 32.922 10
    endloop
  endfacet
  facet normal 0 0 1
    outer loop
      vertex 9.28676 48.0353 10
      vertex 8.33169 46.3811 10
      vertex 10.75 49.2631 10
    endloop
  endfacet
  facet normal 0 0 1
    outer loop
      vertex 8.33169 46.3811 10
      vertex 8 44.5 10
      vertex 12.5449 49.9164 10
    endloop
  endfacet
  facet normal 0 0 1
    outer loop
      vertex -3.85294 27.2007 10
      vertex -4.65843 29.0098 10
      vertex -7.87491 30 10
    endloop
  endfacet
  facet normal 0 0 1
    outer loop
      vertex 8 44.5 10
      vertex 10.1418 45.4861 10
      vertex 11.208 47.1451 10
    endloop
  endfacet
  facet normal 0 0 1
    outer loop
      vertex 14.954 47.6837 10
      vertex 16.4444 46.3922 10
      vertex 17.7132 48.0353 10
    endloop
  endfacet
  facet normal 0 0 1
    outer loop
      vertex 8 44.5 10
      vertex 10.1418 43.5139 10
      vertex 10.1418 45.4861 10
    endloop
  endfacet
  facet normal 0 0 1
    outer loop
      vertex 8 44.5 10
      vertex 11.208 41.8549 10
      vertex 10.1418 43.5139 10
    endloop
  endfacet
  facet normal 0 0 1
    outer loop
      vertex 11.208 41.8549 10
      vertex 8 38 10
      vertex 13.0019 41.0356 10
    endloop
  endfacet
  facet normal 0 0 1
    outer loop
      vertex 8 44.5 10
      vertex 8 38 10
      vertex 11.208 41.8549 10
    endloop
  endfacet
  facet normal -1 0 0
    outer loop
      vertex -7.87491 9.00517 0
      vertex -7.87491 9.00517 10
      vertex -7.87491 10 0
    endloop
  endfacet
  facet normal -1 0 0
    outer loop
      vertex -7.87491 10 0
      vertex -7.87491 9.00517 10
      vertex -7.87491 10 10
    endloop
  endfacet
  facet normal -0.968583 -0.24869 0
    outer loop
      vertex -7.87491 9.00517 0
      vertex -7.3801 7.07801 0
      vertex -7.87491 9.00517 10
    endloop
  endfacet
  facet normal -0.968583 -0.24869 0
    outer loop
      vertex -7.87491 9.00517 10
      vertex -7.3801 7.07801 0
      vertex -7.3801 7.07801 10
    endloop
  endfacet
  facet normal -0.876306 -0.481754 0
    outer loop
      vertex -7.3801 7.07801 0
      vertex -6.42157 5.33446 0
      vertex -7.3801 7.07801 10
    endloop
  endfacet
  facet normal -0.876306 -0.481754 0
    outer loop
      vertex -7.3801 7.07801 10
      vertex -6.42157 5.33446 0
      vertex -6.42157 5.33446 10
    endloop
  endfacet
  facet normal -0.728969 -0.684547 0
    outer loop
      vertex -6.42157 5.33446 0
      vertex -5.05955 3.88405 0
      vertex -6.42157 5.33446 10
    endloop
  endfacet
  facet normal -0.728969 -0.684547 0
    outer loop
      vertex -6.42157 5.33446 10
      vertex -5.05955 3.88405 0
      vertex -5.05955 3.88405 10
    endloop
  endfacet
  facet normal -0.535827 -0.844328 0
    outer loop
      vertex -5.05955 3.88405 10
      vertex -5.05955 3.88405 0
      vertex -3.37962 2.81794 0
    endloop
  endfacet
  facet normal -0.535827 -0.844328 0
    outer loop
      vertex -3.37962 2.81794 10
      vertex -5.05955 3.88405 10
      vertex -3.37962 2.81794 0
    endloop
  endfacet
  facet normal -0.309017 -0.951057 0
    outer loop
      vertex -3.37962 2.81794 10
      vertex -3.37962 2.81794 0
      vertex -1.48734 2.2031 0
    endloop
  endfacet
  facet normal -0.309017 -0.951057 0
    outer loop
      vertex -1.48734 2.2031 10
      vertex -3.37962 2.81794 10
      vertex -1.48734 2.2031 0
    endloop
  endfacet
  facet normal -0.0627905 -0.998027 0
    outer loop
      vertex -1.48734 2.2031 10
      vertex -1.48734 2.2031 0
      vertex 0.4984 2.07816 0
    endloop
  endfacet
  facet normal -0.0627905 -0.998027 0
    outer loop
      vertex 0.4984 2.07816 10
      vertex -1.48734 2.2031 10
      vertex 0.4984 2.07816 0
    endloop
  endfacet
  facet normal 0.187381 -0.982287 0
    outer loop
      vertex 0.4984 2.07816 10
      vertex 0.4984 2.07816 0
      vertex 2.45282 2.45099 0
    endloop
  endfacet
  facet normal 0.187381 -0.982287 0
    outer loop
      vertex 2.45282 2.45099 10
      vertex 0.4984 2.07816 10
      vertex 2.45282 2.45099 0
    endloop
  endfacet
  facet normal 0.425779 -0.904827 0
    outer loop
      vertex 2.45282 2.45099 10
      vertex 2.45282 2.45099 0
      vertex 4.25312 3.29815 0
    endloop
  endfacet
  facet normal 0.425779 -0.904827 0
    outer loop
      vertex 4.25312 3.29815 10
      vertex 2.45282 2.45099 10
      vertex 4.25312 3.29815 0
    endloop
  endfacet
  facet normal 0.637424 -0.770513 0
    outer loop
      vertex 4.25312 3.29815 10
      vertex 4.25312 3.29815 0
      vertex 5.78619 4.56641 0
    endloop
  endfacet
  facet normal 0.637424 -0.770513 0
    outer loop
      vertex 5.78619 4.56641 10
      vertex 4.25312 3.29815 10
      vertex 5.78619 4.56641 0
    endloop
  endfacet
  facet normal 0.809017 -0.587785 0
    outer loop
      vertex 5.78619 4.56641 10
      vertex 5.78619 4.56641 0
      vertex 6.95568 6.17608 0
    endloop
  endfacet
  facet normal 0.809017 -0.587785 0
    outer loop
      vertex 6.95568 6.17608 10
      vertex 5.78619 4.56641 10
      vertex 6.95568 6.17608 0
    endloop
  endfacet
  facet normal 0.929776 -0.368125 0
    outer loop
      vertex 6.95568 6.17608 10
      vertex 6.95568 6.17608 0
      vertex 7.67783 8 0
    endloop
  endfacet
  facet normal 0.929776 -0.368125 0
    outer loop
      vertex 7.67783 8 10
      vertex 6.95568 6.17608 10
      vertex 7.67783 8 0
    endloop
  endfacet
  facet normal 0 -1 0
    outer loop
      vertex 7.67783 8 10
      vertex 7.67783 8 0
      vertex 14 8 0
    endloop
  endfacet
  facet normal 0 -1 0
    outer loop
      vertex 14 8 10
      vertex 7.67783 8 10
      vertex 14 8 0
    endloop
  endfacet
  facet normal 1 0 0
    outer loop
      vertex 14 8 10
      vertex 14 8 0
      vertex 14 8.08356 0
    endloop
  endfacet
  facet normal 1 0 0
    outer loop
      vertex 14 8.08356 10
      vertex 14 8 10
      vertex 14 8.08356 0
    endloop
  endfacet
  facet normal 0 -1 0
    outer loop
      vertex 14 8.08356 10
      vertex 14 8.08356 0
      vertex 14.4551 8.08356 0
    endloop
  endfacet
  facet normal 0 -1 0
    outer loop
      vertex 14.4551 8.08356 10
      vertex 14 8.08356 10
      vertex 14.4551 8.08356 0
    endloop
  endfacet
  facet normal 0.34202 -0.939693 0
    outer loop
      vertex 14.4551 8.08356 10
      vertex 14.4551 8.08356 0
      vertex 16.25 8.73686 0
    endloop
  endfacet
  facet normal 0.34202 -0.939693 0
    outer loop
      vertex 16.25 8.73686 10
      vertex 14.4551 8.08356 10
      vertex 16.25 8.73686 0
    endloop
  endfacet
  facet normal 0.642788 -0.766044 0
    outer loop
      vertex 16.25 8.73686 10
      vertex 16.25 8.73686 0
      vertex 17.7132 9.96467 0
    endloop
  endfacet
  facet normal 0.642788 -0.766044 0
    outer loop
      vertex 17.7132 9.96467 10
      vertex 16.25 8.73686 10
      vertex 17.7132 9.96467 0
    endloop
  endfacet
  facet normal 0.866025 -0.5 0
    outer loop
      vertex 17.7132 9.96467 10
      vertex 17.7132 9.96467 0
      vertex 18.6683 11.6189 0
    endloop
  endfacet
  facet normal 0.866025 -0.5 0
    outer loop
      vertex 18.6683 11.6189 10
      vertex 17.7132 9.96467 10
      vertex 18.6683 11.6189 0
    endloop
  endfacet
  facet normal 0.984808 -0.173648 0
    outer loop
      vertex 18.6683 11.6189 10
      vertex 18.6683 11.6189 0
      vertex 19 13.5 0
    endloop
  endfacet
  facet normal 0.984808 -0.173648 0
    outer loop
      vertex 19 13.5 10
      vertex 18.6683 11.6189 10
      vertex 19 13.5 0
    endloop
  endfacet
  facet normal 0.984808 0.173648 0
    outer loop
      vertex 19 13.5 0
      vertex 18.6683 15.3811 0
      vertex 18.6683 15.3811 10
    endloop
  endfacet
  facet normal 0.984808 0.173648 0
    outer loop
      vertex 19 13.5 10
      vertex 19 13.5 0
      vertex 18.6683 15.3811 10
    endloop
  endfacet
  facet normal 0.866025 0.5 0
    outer loop
      vertex 18.6683 15.3811 0
      vertex 17.7132 17.0353 0
      vertex 17.7132 17.0353 10
    endloop
  endfacet
  facet normal 0.866025 0.5 0
    outer loop
      vertex 18.6683 15.3811 10
      vertex 18.6683 15.3811 0
      vertex 17.7132 17.0353 10
    endloop
  endfacet
  facet normal 0.642788 0.766044 0
    outer loop
      vertex 17 17.6338 0
      vertex 17 17.6338 10
      vertex 17.7132 17.0353 0
    endloop
  endfacet
  facet normal 0.642788 0.766044 0
    outer loop
      vertex 17.7132 17.0353 0
      vertex 17 17.6338 10
      vertex 17.7132 17.0353 10
    endloop
  endfacet
  facet normal 1 0 0
    outer loop
      vertex 17 17.6338 10
      vertex 17 17.6338 0
      vertex 17 40.3662 0
    endloop
  endfacet
  facet normal 1 0 0
    outer loop
      vertex 17 40.3662 10
      vertex 17 17.6338 10
      vertex 17 40.3662 0
    endloop
  endfacet
  facet normal 0.642788 -0.766044 0
    outer loop
      vertex 17 40.3662 10
      vertex 17 40.3662 0
      vertex 17.7132 40.9647 0
    endloop
  endfacet
  facet normal 0.642788 -0.766044 0
    outer loop
      vertex 17.7132 40.9647 10
      vertex 17 40.3662 10
      vertex 17.7132 40.9647 0
    endloop
  endfacet
  facet normal 0.866025 -0.5 0
    outer loop
      vertex 17.7132 40.9647 10
      vertex 17.7132 40.9647 0
      vertex 18.6683 42.6189 0
    endloop
  endfacet
  facet normal 0.866025 -0.5 0
    outer loop
      vertex 18.6683 42.6189 10
      vertex 17.7132 40.9647 10
      vertex 18.6683 42.6189 0
    endloop
  endfacet
  facet normal 0.984808 -0.173648 0
    outer loop
      vertex 18.6683 42.6189 10
      vertex 18.6683 42.6189 0
      vertex 19 44.5 0
    endloop
  endfacet
  facet normal 0.984808 -0.173648 0
    outer loop
      vertex 19 44.5 10
      vertex 18.6683 42.6189 10
      vertex 19 44.5 0
    endloop
  endfacet
  facet normal 0.984808 0.173648 0
    outer loop
      vertex 19 44.5 0
      vertex 18.6683 46.3811 0
      vertex 18.6683 46.3811 10
    endloop
  endfacet
  facet normal 0.984808 0.173648 0
    outer loop
      vertex 19 44.5 10
      vertex 19 44.5 0
      vertex 18.6683 46.3811 10
    endloop
  endfacet
  facet normal 0.866025 0.5 0
    outer loop
      vertex 18.6683 46.3811 0
      vertex 17.7132 48.0353 0
      vertex 17.7132 48.0353 10
    endloop
  endfacet
  facet normal 0.866025 0.5 0
    outer loop
      vertex 18.6683 46.3811 10
      vertex 18.6683 46.3811 0
      vertex 17.7132 48.0353 10
    endloop
  endfacet
  facet normal 0.642788 0.766044 0
    outer loop
      vertex 16.25 49.2631 0
      vertex 16.25 49.2631 10
      vertex 17.7132 48.0353 0
    endloop
  endfacet
  facet normal 0.642788 0.766044 0
    outer loop
      vertex 17.7132 48.0353 0
      vertex 16.25 49.2631 10
      vertex 17.7132 48.0353 10
    endloop
  endfacet
  facet normal 0.34202 0.939693 0
    outer loop
      vertex 14.4551 49.9164 0
      vertex 14.4551 49.9164 10
      vertex 16.25 49.2631 0
    endloop
  endfacet
  facet normal 0.34202 0.939693 0
    outer loop
      vertex 16.25 49.2631 0
      vertex 14.4551 49.9164 10
      vertex 16.25 49.2631 10
    endloop
  endfacet
  facet normal 0 1 0
    outer loop
      vertex 12.5449 49.9164 0
      vertex 12.5449 49.9164 10
      vertex 14.4551 49.9164 0
    endloop
  endfacet
  facet normal 0 1 0
    outer loop
      vertex 14.4551 49.9164 0
      vertex 12.5449 49.9164 10
      vertex 14.4551 49.9164 10
    endloop
  endfacet
  facet normal -0.34202 0.939693 0
    outer loop
      vertex 10.75 49.2631 0
      vertex 10.75 49.2631 10
      vertex 12.5449 49.9164 0
    endloop
  endfacet
  facet normal -0.34202 0.939693 0
    outer loop
      vertex 12.5449 49.9164 0
      vertex 10.75 49.2631 10
      vertex 12.5449 49.9164 10
    endloop
  endfacet
  facet normal -0.642788 0.766044 0
    outer loop
      vertex 9.28676 48.0353 0
      vertex 9.28676 48.0353 10
      vertex 10.75 49.2631 0
    endloop
  endfacet
  facet normal -0.642788 0.766044 0
    outer loop
      vertex 10.75 49.2631 0
      vertex 9.28676 48.0353 10
      vertex 10.75 49.2631 10
    endloop
  endfacet
  facet normal -0.866025 0.5 0
    outer loop
      vertex 8.33169 46.3811 0
      vertex 8.33169 46.3811 10
      vertex 9.28676 48.0353 0
    endloop
  endfacet
  facet normal -0.866025 0.5 0
    outer loop
      vertex 9.28676 48.0353 0
      vertex 8.33169 46.3811 10
      vertex 9.28676 48.0353 10
    endloop
  endfacet
  facet normal -0.984808 0.173648 0
    outer loop
      vertex 8 44.5 0
      vertex 8 44.5 10
      vertex 8.33169 46.3811 0
    endloop
  endfacet
  facet normal -0.984808 0.173648 0
    outer loop
      vertex 8.33169 46.3811 0
      vertex 8 44.5 10
      vertex 8.33169 46.3811 10
    endloop
  endfacet
  facet normal -1 0 0
    outer loop
      vertex 8 38 0
      vertex 8 38 10
      vertex 8 44.5 0
    endloop
  endfacet
  facet normal -1 0 0
    outer loop
      vertex 8 44.5 0
      vertex 8 38 10
      vertex 8 44.5 10
    endloop
  endfacet
  facet normal 0 1 0
    outer loop
      vertex 0 38 0
      vertex 0 38 10
      vertex 8 38 0
    endloop
  endfacet
  facet normal 0 1 0
    outer loop
      vertex 8 38 0
      vertex 0 38 10
      vertex 8 38 10
    endloop
  endfacet
  facet normal -1 0 0
    outer loop
      vertex 0 37.8905 0
      vertex 0 37.8905 10
      vertex 0 38 0
    endloop
  endfacet
  facet normal -1 0 0
    outer loop
      vertex 0 38 0
      vertex 0 37.8905 10
      vertex 0 38 10
    endloop
  endfacet
  facet normal -0.0627905 0.998027 0
    outer loop
      vertex -1.48734 37.7969 0
      vertex -1.48734 37.7969 10
      vertex 0 37.8905 0
    endloop
  endfacet
  facet normal -0.0627905 0.998027 0
    outer loop
      vertex 0 37.8905 0
      vertex -1.48734 37.7969 10
      vertex 0 37.8905 10
    endloop
  endfacet
  facet normal -0.309017 0.951057 0
    outer loop
      vertex -3.37962 37.1821 0
      vertex -3.37962 37.1821 10
      vertex -1.48734 37.7969 0
    endloop
  endfacet
  facet normal -0.309017 0.951057 0
    outer loop
      vertex -1.48734 37.7969 0
      vertex -3.37962 37.1821 10
      vertex -1.48734 37.7969 10
    endloop
  endfacet
  facet normal -0.535827 0.844328 0
    outer loop
      vertex -5.05955 36.1159 0
      vertex -5.05955 36.1159 10
      vertex -3.37962 37.1821 0
    endloop
  endfacet
  facet normal -0.535827 0.844328 0
    outer loop
      vertex -3.37962 37.1821 0
      vertex -5.05955 36.1159 10
      vertex -3.37962 37.1821 10
    endloop
  endfacet
  facet normal -0.728969 0.684547 0
    outer loop
      vertex -6.42157 34.6655 0
      vertex -6.42157 34.6655 10
      vertex -5.05955 36.1159 0
    endloop
  endfacet
  facet normal -0.728969 0.684547 0
    outer loop
      vertex -5.05955 36.1159 0
      vertex -6.42157 34.6655 10
      vertex -5.05955 36.1159 10
    endloop
  endfacet
  facet normal -0.876306 0.481754 0
    outer loop
      vertex -7.3801 32.922 0
      vertex -7.3801 32.922 10
      vertex -6.42157 34.6655 0
    endloop
  endfacet
  facet normal -0.876306 0.481754 0
    outer loop
      vertex -6.42157 34.6655 0
      vertex -7.3801 32.922 10
      vertex -6.42157 34.6655 10
    endloop
  endfacet
  facet normal -0.968583 0.24869 0
    outer loop
      vertex -7.87491 30.9948 0
      vertex -7.87491 30.9948 10
      vertex -7.3801 32.922 0
    endloop
  endfacet
  facet normal -0.968583 0.24869 0
    outer loop
      vertex -7.3801 32.922 0
      vertex -7.87491 30.9948 10
      vertex -7.3801 32.922 10
    endloop
  endfacet
  facet normal -1 0 0
    outer loop
      vertex -7.87491 30 0
      vertex -7.87491 30 10
      vertex -7.87491 30.9948 0
    endloop
  endfacet
  facet normal -1 0 0
    outer loop
      vertex -7.87491 30.9948 0
      vertex -7.87491 30 10
      vertex -7.87491 30.9948 10
    endloop
  endfacet
  facet normal 0.913545 -0.406737 0
    outer loop
      vertex -3.85294 12.7993 0
      vertex -3.85294 12.7993 10
      vertex -4.65843 10.9902 10
    endloop
  endfacet
  facet normal 0.913545 -0.406737 0
    outer loop
      vertex -4.65843 10.9902 0
      vertex -3.85294 12.7993 0
      vertex -4.65843 10.9902 10
    endloop
  endfacet
  facet normal 1 0 0
    outer loop
      vertex -4.65843 10.9902 0
      vertex -4.65843 10.9902 10
      vertex -4.65843 9.00982 10
    endloop
  endfacet
  facet normal 1 0 0
    outer loop
      vertex -4.65843 9.00982 0
      vertex -4.65843 10.9902 0
      vertex -4.65843 9.00982 10
    endloop
  endfacet
  facet normal 0.669131 -0.743145 0
    outer loop
      vertex -2.38125 14.1244 0
      vertex -2.38125 14.1244 10
      vertex -3.85294 12.7993 10
    endloop
  endfacet
  facet normal 0.669131 -0.743145 0
    outer loop
      vertex -3.85294 12.7993 0
      vertex -2.38125 14.1244 0
      vertex -3.85294 12.7993 10
    endloop
  endfacet
  facet normal 0.309017 -0.951056 0
    outer loop
      vertex -0.497817 14.7364 0
      vertex -0.497817 14.7364 10
      vertex -2.38125 14.1244 10
    endloop
  endfacet
  facet normal 0.309017 -0.951056 0
    outer loop
      vertex -2.38125 14.1244 0
      vertex -0.497817 14.7364 0
      vertex -2.38125 14.1244 10
    endloop
  endfacet
  facet normal -0.104529 -0.994522 0
    outer loop
      vertex 1.47169 14.5294 0
      vertex 1.47169 14.5294 10
      vertex -0.497817 14.7364 10
    endloop
  endfacet
  facet normal -0.104529 -0.994522 0
    outer loop
      vertex -0.497817 14.7364 0
      vertex 1.47169 14.5294 0
      vertex -0.497817 14.7364 10
    endloop
  endfacet
  facet normal -0.5 -0.866025 0
    outer loop
      vertex 3.18673 13.5392 0
      vertex 3.18673 13.5392 10
      vertex 1.47169 14.5294 10
    endloop
  endfacet
  facet normal -0.5 -0.866025 0
    outer loop
      vertex 1.47169 14.5294 0
      vertex 3.18673 13.5392 0
      vertex 1.47169 14.5294 10
    endloop
  endfacet
  facet normal -0.809017 -0.587785 0
    outer loop
      vertex 4.35076 11.9371 10
      vertex 3.18673 13.5392 10
      vertex 4.35076 11.9371 0
    endloop
  endfacet
  facet normal -0.809017 -0.587785 0
    outer loop
      vertex 4.35076 11.9371 0
      vertex 3.18673 13.5392 10
      vertex 3.18673 13.5392 0
    endloop
  endfacet
  facet normal -0.978148 -0.207912 0
    outer loop
      vertex 4.7625 10 10
      vertex 4.35076 11.9371 10
      vertex 4.7625 10 0
    endloop
  endfacet
  facet normal -0.978148 -0.207912 0
    outer loop
      vertex 4.7625 10 0
      vertex 4.35076 11.9371 10
      vertex 4.35076 11.9371 0
    endloop
  endfacet
  facet normal -0.978148 0.207912 0
    outer loop
      vertex 4.7625 10 10
      vertex 4.7625 10 0
      vertex 4.35076 8.06292 10
    endloop
  endfacet
  facet normal -0.978148 0.207912 0
    outer loop
      vertex 4.35076 8.06292 10
      vertex 4.7625 10 0
      vertex 4.35076 8.06292 0
    endloop
  endfacet
  facet normal -0.809017 0.587785 0
    outer loop
      vertex 4.35076 8.06292 10
      vertex 4.35076 8.06292 0
      vertex 3.18673 6.46077 10
    endloop
  endfacet
  facet normal -0.809017 0.587785 0
    outer loop
      vertex 3.18673 6.46077 10
      vertex 4.35076 8.06292 0
      vertex 3.18673 6.46077 0
    endloop
  endfacet
  facet normal -0.5 0.866025 0
    outer loop
      vertex 3.18673 6.46077 10
      vertex 3.18673 6.46077 0
      vertex 1.47169 5.47059 10
    endloop
  endfacet
  facet normal -0.5 0.866025 0
    outer loop
      vertex 1.47169 5.47059 10
      vertex 3.18673 6.46077 0
      vertex 1.47169 5.47059 0
    endloop
  endfacet
  facet normal -0.104529 0.994522 0
    outer loop
      vertex 1.47169 5.47059 10
      vertex 1.47169 5.47059 0
      vertex -0.497817 5.26359 10
    endloop
  endfacet
  facet normal -0.104529 0.994522 0
    outer loop
      vertex -0.497817 5.26359 10
      vertex 1.47169 5.47059 0
      vertex -0.497817 5.26359 0
    endloop
  endfacet
  facet normal 0.309017 0.951056 0
    outer loop
      vertex -0.497817 5.26359 10
      vertex -0.497817 5.26359 0
      vertex -2.38125 5.87555 10
    endloop
  endfacet
  facet normal 0.309017 0.951056 0
    outer loop
      vertex -2.38125 5.87555 10
      vertex -0.497817 5.26359 0
      vertex -2.38125 5.87555 0
    endloop
  endfacet
  facet normal 0.669131 0.743145 0
    outer loop
      vertex -2.38125 5.87555 10
      vertex -2.38125 5.87555 0
      vertex -3.85294 7.20067 10
    endloop
  endfacet
  facet normal 0.669131 0.743145 0
    outer loop
      vertex -3.85294 7.20067 10
      vertex -2.38125 5.87555 0
      vertex -3.85294 7.20067 0
    endloop
  endfacet
  facet normal 0.913545 0.406737 0
    outer loop
      vertex -4.65843 9.00982 10
      vertex -3.85294 7.20067 10
      vertex -3.85294 7.20067 0
    endloop
  endfacet
  facet normal 0.913545 0.406737 0
    outer loop
      vertex -4.65843 9.00982 0
      vertex -4.65843 9.00982 10
      vertex -3.85294 7.20067 0
    endloop
  endfacet
  facet normal 0.913545 -0.406737 0
    outer loop
      vertex -3.85294 32.7993 0
      vertex -3.85294 32.7993 10
      vertex -4.65843 30.9902 10
    endloop
  endfacet
  facet normal 0.913545 -0.406737 0
    outer loop
      vertex -4.65843 30.9902 0
      vertex -3.85294 32.7993 0
      vertex -4.65843 30.9902 10
    endloop
  endfacet
  facet normal 1 0 0
    outer loop
      vertex -4.65843 30.9902 0
      vertex -4.65843 30.9902 10
      vertex -4.65843 29.0098 10
    endloop
  endfacet
  facet normal 1 0 0
    outer loop
      vertex -4.65843 29.0098 0
      vertex -4.65843 30.9902 0
      vertex -4.65843 29.0098 10
    endloop
  endfacet
  facet normal 0.669131 -0.743145 0
    outer loop
      vertex -2.38125 34.1244 0
      vertex -2.38125 34.1244 10
      vertex -3.85294 32.7993 10
    endloop
  endfacet
  facet normal 0.669131 -0.743145 0
    outer loop
      vertex -3.85294 32.7993 0
      vertex -2.38125 34.1244 0
      vertex -3.85294 32.7993 10
    endloop
  endfacet
  facet normal 0.309017 -0.951056 0
    outer loop
      vertex -0.497817 34.7364 0
      vertex -0.497817 34.7364 10
      vertex -2.38125 34.1244 10
    endloop
  endfacet
  facet normal 0.309017 -0.951056 0
    outer loop
      vertex -2.38125 34.1244 0
      vertex -0.497817 34.7364 0
      vertex -2.38125 34.1244 10
    endloop
  endfacet
  facet normal -0.104529 -0.994522 0
    outer loop
      vertex 1.47169 34.5294 0
      vertex 1.47169 34.5294 10
      vertex -0.497817 34.7364 10
    endloop
  endfacet
  facet normal -0.104529 -0.994522 0
    outer loop
      vertex -0.497817 34.7364 0
      vertex 1.47169 34.5294 0
      vertex -0.497817 34.7364 10
    endloop
  endfacet
  facet normal -0.5 -0.866025 0
    outer loop
      vertex 3.18673 33.5392 0
      vertex 3.18673 33.5392 10
      vertex 1.47169 34.5294 10
    endloop
  endfacet
  facet normal -0.5 -0.866025 0
    outer loop
      vertex 1.47169 34.5294 0
      vertex 3.18673 33.5392 0
      vertex 1.47169 34.5294 10
    endloop
  endfacet
  facet normal -0.809017 -0.587785 0
    outer loop
      vertex 4.35076 31.9371 10
      vertex 3.18673 33.5392 10
      vertex 4.35076 31.9371 0
    endloop
  endfacet
  facet normal -0.809017 -0.587785 0
    outer loop
      vertex 4.35076 31.9371 0
      vertex 3.18673 33.5392 10
      vertex 3.18673 33.5392 0
    endloop
  endfacet
  facet normal -0.978148 -0.207912 0
    outer loop
      vertex 4.7625 30 10
      vertex 4.35076 31.9371 10
      vertex 4.7625 30 0
    endloop
  endfacet
  facet normal -0.978148 -0.207912 0
    outer loop
      vertex 4.7625 30 0
      vertex 4.35076 31.9371 10
      vertex 4.35076 31.9371 0
    endloop
  endfacet
  facet normal -0.978148 0.207912 0
    outer loop
      vertex 4.7625 30 10
      vertex 4.7625 30 0
      vertex 4.35076 28.0629 10
    endloop
  endfacet
  facet normal -0.978148 0.207912 0
    outer loop
      vertex 4.35076 28.0629 10
      vertex 4.7625 30 0
      vertex 4.35076 28.0629 0
    endloop
  endfacet
  facet normal -0.809017 0.587785 0
    outer loop
      vertex 4.35076 28.0629 10
      vertex 4.35076 28.0629 0
      vertex 3.18673 26.4608 10
    endloop
  endfacet
  facet normal -0.809017 0.587785 0
    outer loop
      vertex 3.18673 26.4608 10
      vertex 4.35076 28.0629 0
      vertex 3.18673 26.4608 0
    endloop
  endfacet
  facet normal -0.5 0.866025 0
    outer loop
      vertex 3.18673 26.4608 10
      vertex 3.18673 26.4608 0
      vertex 1.47169 25.4706 10
    endloop
  endfacet
  facet normal -0.5 0.866025 0
    outer loop
      vertex 1.47169 25.4706 10
      vertex 3.18673 26.4608 0
      vertex 1.47169 25.4706 0
    endloop
  endfacet
  facet normal -0.104529 0.994522 0
    outer loop
      vertex 1.47169 25.4706 10
      vertex 1.47169 25.4706 0
      vertex -0.497817 25.2636 10
    endloop
  endfacet
  facet normal -0.104529 0.994522 0
    outer loop
      vertex -0.497817 25.2636 10
      vertex 1.47169 25.4706 0
      vertex -0.497817 25.2636 0
    endloop
  endfacet
  facet normal 0.309017 0.951056 0
    outer loop
      vertex -0.497817 25.2636 10
      vertex -0.497817 25.2636 0
      vertex -2.38125 25.8756 10
    endloop
  endfacet
  facet normal 0.309017 0.951056 0
    outer loop
      vertex -2.38125 25.8756 10
      vertex -0.497817 25.2636 0
      vertex -2.38125 25.8756 0
    endloop
  endfacet
  facet normal 0.669131 0.743145 0
    outer loop
      vertex -2.38125 25.8756 10
      vertex -2.38125 25.8756 0
      vertex -3.85294 27.2007 10
    endloop
  endfacet
  facet normal 0.669131 0.743145 0
    outer loop
      vertex -3.85294 27.2007 10
      vertex -2.38125 25.8756 0
      vertex -3.85294 27.2007 0
    endloop
  endfacet
  facet normal 0.913545 0.406737 0
    outer loop
      vertex -4.65843 29.0098 10
      vertex -3.85294 27.2007 10
      vertex -3.85294 27.2007 0
    endloop
  endfacet
  facet normal 0.913545 0.406737 0
    outer loop
      vertex -4.65843 29.0098 0
      vertex -4.65843 29.0098 10
      vertex -3.85294 27.2007 0
    endloop
  endfacet
  facet normal 0.866025 0.5 0
    outer loop
      vertex 11.8 13.5 7.8
      vertex 12.65 12.0278 7.8
      vertex 12.65 12.0278 0
    endloop
  endfacet
  facet normal 0.866025 0.5 0
    outer loop
      vertex 11.8 13.5 0
      vertex 11.8 13.5 7.8
      vertex 12.65 12.0278 0
    endloop
  endfacet
  facet normal 0.866025 -0.5 0
    outer loop
      vertex 12.65 14.9722 0
      vertex 12.65 14.9722 7.8
      vertex 11.8 13.5 7.8
    endloop
  endfacet
  facet normal 0.866025 -0.5 0
    outer loop
      vertex 11.8 13.5 0
      vertex 12.65 14.9722 0
      vertex 11.8 13.5 7.8
    endloop
  endfacet
  facet normal 0 -1 0
    outer loop
      vertex 14.35 14.9722 0
      vertex 14.35 14.9722 7.8
      vertex 12.65 14.9722 7.8
    endloop
  endfacet
  facet normal 0 -1 0
    outer loop
      vertex 12.65 14.9722 0
      vertex 14.35 14.9722 0
      vertex 12.65 14.9722 7.8
    endloop
  endfacet
  facet normal -0.866025 -0.5 0
    outer loop
      vertex 15.2 13.5 7.8
      vertex 14.35 14.9722 7.8
      vertex 15.2 13.5 0
    endloop
  endfacet
  facet normal -0.866025 -0.5 0
    outer loop
      vertex 15.2 13.5 0
      vertex 14.35 14.9722 7.8
      vertex 14.35 14.9722 0
    endloop
  endfacet
  facet normal -0.866025 0.5 0
    outer loop
      vertex 15.2 13.5 7.8
      vertex 15.2 13.5 0
      vertex 14.35 12.0278 7.8
    endloop
  endfacet
  facet normal -0.866025 0.5 0
    outer loop
      vertex 14.35 12.0278 7.8
      vertex 15.2 13.5 0
      vertex 14.35 12.0278 0
    endloop
  endfacet
  facet normal 0 1 0
    outer loop
      vertex 14.35 12.0278 7.8
      vertex 14.35 12.0278 0
      vertex 12.65 12.0278 7.8
    endloop
  endfacet
  facet normal 0 1 0
    outer loop
      vertex 12.65 12.0278 7.8
      vertex 14.35 12.0278 0
      vertex 12.65 12.0278 0
    endloop
  endfacet
  facet normal 0.866025 0.5 0
    outer loop
      vertex 11.8 44.5 7.8
      vertex 12.65 43.0278 7.8
      vertex 12.65 43.0278 0
    endloop
  endfacet
  facet normal 0.866025 0.5 0
    outer loop
      vertex 11.8 44.5 0
      vertex 11.8 44.5 7.8
      vertex 12.65 43.0278 0
    endloop
  endfacet
  facet normal 0.866025 -0.5 0
    outer loop
      vertex 12.65 45.9722 0
      vertex 12.65 45.9722 7.8
      vertex 11.8 44.5 7.8
    endloop
  endfacet
  facet normal 0.866025 -0.5 0
    outer loop
      vertex 11.8 44.5 0
      vertex 12.65 45.9722 0
      vertex 11.8 44.5 7.8
    endloop
  endfacet
  facet normal 0 -1 0
    outer loop
      vertex 14.35 45.9722 0
      vertex 14.35 45.9722 7.8
      vertex 12.65 45.9722 7.8
    endloop
  endfacet
  facet normal 0 -1 0
    outer loop
      vertex 12.65 45.9722 0
      vertex 14.35 45.9722 0
      vertex 12.65 45.9722 7.8
    endloop
  endfacet
  facet normal -0.866025 -0.5 0
    outer loop
      vertex 15.2 44.5 7.8
      vertex 14.35 45.9722 7.8
      vertex 15.2 44.5 0
    endloop
  endfacet
  facet normal -0.866025 -0.5 0
    outer loop
      vertex 15.2 44.5 0
      vertex 14.35 45.9722 7.8
      vertex 14.35 45.9722 0
    endloop
  endfacet
  facet normal -0.866025 0.5 0
    outer loop
      vertex 15.2 44.5 7.8
      vertex 15.2 44.5 0
      vertex 14.35 43.0278 7.8
    endloop
  endfacet
  facet normal -0.866025 0.5 0
    outer loop
      vertex 14.35 43.0278 7.8
      vertex 15.2 44.5 0
      vertex 14.35 43.0278 0
    endloop
  endfacet
  facet normal 0 1 0
    outer loop
      vertex 14.35 43.0278 7.8
      vertex 14.35 43.0278 0
      vertex 12.65 43.0278 7.8
    endloop
  endfacet
  facet normal 0 1 0
    outer loop
      vertex 12.65 43.0278 7.8
      vertex 14.35 43.0278 0
      vertex 12.65 43.0278 0
    endloop
  endfacet
  facet normal 1 0 0
    outer loop
      vertex 10.1418 14.4861 7.8
      vertex 10.1418 14.4861 10
      vertex 10.1418 12.5139 10
    endloop
  endfacet
  facet normal 1 0 0
    outer loop
      vertex 10.1418 12.5139 7.8
      vertex 10.1418 14.4861 7.8
      vertex 10.1418 12.5139 10
    endloop
  endfacet
  facet normal 0.841254 0.54064 0
    outer loop
      vertex 10.1418 12.5139 10
      vertex 11.208 10.8549 10
      vertex 11.208 10.8549 7.8
    endloop
  endfacet
  facet normal 0.841254 0.54064 0
    outer loop
      vertex 10.1418 12.5139 7.8
      vertex 10.1418 12.5139 10
      vertex 11.208 10.8549 7.8
    endloop
  endfacet
  facet normal 0.415415 0.909632 0
    outer loop
      vertex 13.0019 10.0356 10
      vertex 13.0019 10.0356 7.8
      vertex 11.208 10.8549 10
    endloop
  endfacet
  facet normal 0.415415 0.909632 0
    outer loop
      vertex 11.208 10.8549 10
      vertex 13.0019 10.0356 7.8
      vertex 11.208 10.8549 7.8
    endloop
  endfacet
  facet normal -0.142315 0.989821 0
    outer loop
      vertex 14.954 10.3163 10
      vertex 14.954 10.3163 7.8
      vertex 13.0019 10.0356 10
    endloop
  endfacet
  facet normal -0.142315 0.989821 0
    outer loop
      vertex 13.0019 10.0356 10
      vertex 14.954 10.3163 7.8
      vertex 13.0019 10.0356 7.8
    endloop
  endfacet
  facet normal -0.654861 0.755749 0
    outer loop
      vertex 16.4444 11.6078 10
      vertex 16.4444 11.6078 7.8
      vertex 14.954 10.3163 10
    endloop
  endfacet
  facet normal -0.654861 0.755749 0
    outer loop
      vertex 14.954 10.3163 10
      vertex 16.4444 11.6078 7.8
      vertex 14.954 10.3163 7.8
    endloop
  endfacet
  facet normal -0.959493 0.281733 0
    outer loop
      vertex 17 13.5 10
      vertex 17 13.5 7.8
      vertex 16.4444 11.6078 10
    endloop
  endfacet
  facet normal -0.959493 0.281733 0
    outer loop
      vertex 16.4444 11.6078 10
      vertex 17 13.5 7.8
      vertex 16.4444 11.6078 7.8
    endloop
  endfacet
  facet normal -0.959493 -0.281733 0
    outer loop
      vertex 17 13.5 10
      vertex 16.4444 15.3922 10
      vertex 17 13.5 7.8
    endloop
  endfacet
  facet normal -0.959493 -0.281733 0
    outer loop
      vertex 17 13.5 7.8
      vertex 16.4444 15.3922 10
      vertex 16.4444 15.3922 7.8
    endloop
  endfacet
  facet normal -0.654861 -0.755749 0
    outer loop
      vertex 16.4444 15.3922 7.8
      vertex 16.4444 15.3922 10
      vertex 14.954 16.6837 10
    endloop
  endfacet
  facet normal -0.654861 -0.755749 0
    outer loop
      vertex 14.954 16.6837 7.8
      vertex 16.4444 15.3922 7.8
      vertex 14.954 16.6837 10
    endloop
  endfacet
  facet normal -0.142315 -0.989821 0
    outer loop
      vertex 14.954 16.6837 7.8
      vertex 14.954 16.6837 10
      vertex 13.0019 16.9644 10
    endloop
  endfacet
  facet normal -0.142315 -0.989821 0
    outer loop
      vertex 13.0019 16.9644 7.8
      vertex 14.954 16.6837 7.8
      vertex 13.0019 16.9644 10
    endloop
  endfacet
  facet normal 0.415415 -0.909632 0
    outer loop
      vertex 13.0019 16.9644 7.8
      vertex 13.0019 16.9644 10
      vertex 11.208 16.1451 10
    endloop
  endfacet
  facet normal 0.415415 -0.909632 0
    outer loop
      vertex 11.208 16.1451 7.8
      vertex 13.0019 16.9644 7.8
      vertex 11.208 16.1451 10
    endloop
  endfacet
  facet normal 0.841254 -0.54064 0
    outer loop
      vertex 11.208 16.1451 7.8
      vertex 11.208 16.1451 10
      vertex 10.1418 14.4861 10
    endloop
  endfacet
  facet normal 0.841254 -0.54064 0
    outer loop
      vertex 10.1418 14.4861 7.8
      vertex 11.208 16.1451 7.8
      vertex 10.1418 14.4861 10
    endloop
  endfacet
  facet normal 1 0 0
    outer loop
      vertex 10.1418 45.4861 7.8
      vertex 10.1418 45.4861 10
      vertex 10.1418 43.5139 10
    endloop
  endfacet
  facet normal 1 0 0
    outer loop
      vertex 10.1418 43.5139 7.8
      vertex 10.1418 45.4861 7.8
      vertex 10.1418 43.5139 10
    endloop
  endfacet
  facet normal 0.841254 0.54064 0
    outer loop
      vertex 10.1418 43.5139 10
      vertex 11.208 41.8549 10
      vertex 11.208 41.8549 7.8
    endloop
  endfacet
  facet normal 0.841254 0.54064 0
    outer loop
      vertex 10.1418 43.5139 7.8
      vertex 10.1418 43.5139 10
      vertex 11.208 41.8549 7.8
    endloop
  endfacet
  facet normal 0.415415 0.909632 0
    outer loop
      vertex 13.0019 41.0356 10
      vertex 13.0019 41.0356 7.8
      vertex 11.208 41.8549 10
    endloop
  endfacet
  facet normal 0.415415 0.909632 0
    outer loop
      vertex 11.208 41.8549 10
      vertex 13.0019 41.0356 7.8
      vertex 11.208 41.8549 7.8
    endloop
  endfacet
  facet normal -0.142315 0.989821 0
    outer loop
      vertex 14.954 41.3163 10
      vertex 14.954 41.3163 7.8
      vertex 13.0019 41.0356 10
    endloop
  endfacet
  facet normal -0.142315 0.989821 0
    outer loop
      vertex 13.0019 41.0356 10
      vertex 14.954 41.3163 7.8
      vertex 13.0019 41.0356 7.8
    endloop
  endfacet
  facet normal -0.654861 0.755749 0
    outer loop
      vertex 16.4444 42.6078 10
      vertex 16.4444 42.6078 7.8
      vertex 14.954 41.3163 10
    endloop
  endfacet
  facet normal -0.654861 0.755749 0
    outer loop
      vertex 14.954 41.3163 10
      vertex 16.4444 42.6078 7.8
      vertex 14.954 41.3163 7.8
    endloop
  endfacet
  facet normal -0.959493 0.281733 0
    outer loop
      vertex 17 44.5 10
      vertex 17 44.5 7.8
      vertex 16.4444 42.6078 10
    endloop
  endfacet
  facet normal -0.959493 0.281733 0
    outer loop
      vertex 16.4444 42.6078 10
      vertex 17 44.5 7.8
      vertex 16.4444 42.6078 7.8
    endloop
  endfacet
  facet normal -0.959493 -0.281733 0
    outer loop
      vertex 17 44.5 10
      vertex 16.4444 46.3922 10
      vertex 17 44.5 7.8
    endloop
  endfacet
  facet normal -0.959493 -0.281733 0
    outer loop
      vertex 17 44.5 7.8
      vertex 16.4444 46.3922 10
      vertex 16.4444 46.3922 7.8
    endloop
  endfacet
  facet normal -0.654861 -0.755749 0
    outer loop
      vertex 16.4444 46.3922 7.8
      vertex 16.4444 46.3922 10
      vertex 14.954 47.6837 10
    endloop
  endfacet
  facet normal -0.654861 -0.755749 0
    outer loop
      vertex 14.954 47.6837 7.8
      vertex 16.4444 46.3922 7.8
      vertex 14.954 47.6837 10
    endloop
  endfacet
  facet normal -0.142315 -0.989821 0
    outer loop
      vertex 14.954 47.6837 7.8
      vertex 14.954 47.6837 10
      vertex 13.0019 47.9644 10
    endloop
  endfacet
  facet normal -0.142315 -0.989821 0
    outer loop
      vertex 13.0019 47.9644 7.8
      vertex 14.954 47.6837 7.8
      vertex 13.0019 47.9644 10
    endloop
  endfacet
  facet normal 0.415415 -0.909632 0
    outer loop
      vertex 13.0019 47.9644 7.8
      vertex 13.0019 47.9644 10
      vertex 11.208 47.1451 10
    endloop
  endfacet
  facet normal 0.415415 -0.909632 0
    outer loop
      vertex 11.208 47.1451 7.8
      vertex 13.0019 47.9644 7.8
      vertex 11.208 47.1451 10
    endloop
  endfacet
  facet normal 0.841254 -0.54064 0
    outer loop
      vertex 11.208 47.1451 7.8
      vertex 11.208 47.1451 10
      vertex 10.1418 45.4861 10
    endloop
  endfacet
  facet normal 0.841254 -0.54064 0
    outer loop
      vertex 10.1418 45.4861 7.8
      vertex 11.208 47.1451 7.8
      vertex 10.1418 45.4861 10
    endloop
  endfacet
  facet normal 0 0 1
    outer loop
      vertex 11.208 10.8549 7.8
      vertex 13.0019 10.0356 7.8
      vertex 14.954 10.3163 7.8
    endloop
  endfacet
  facet normal 0 0 1
    outer loop
      vertex 14.35 12.0278 7.8
      vertex 11.208 10.8549 7.8
      vertex 16.4444 11.6078 7.8
    endloop
  endfacet
  facet normal 0 0 1
    outer loop
      vertex 16.4444 11.6078 7.8
      vertex 11.208 10.8549 7.8
      vertex 14.954 10.3163 7.8
    endloop
  endfacet
  facet normal 0 0 1
    outer loop
      vertex 14.35 12.0278 7.8
      vertex 12.65 12.0278 7.8
      vertex 11.208 10.8549 7.8
    endloop
  endfacet
  facet normal 0 0 1
    outer loop
      vertex 14.35 14.9722 7.8
      vertex 15.2 13.5 7.8
      vertex 16.4444 15.3922 7.8
    endloop
  endfacet
  facet normal 0 0 1
    outer loop
      vertex 10.1418 14.4861 7.8
      vertex 11.208 10.8549 7.8
      vertex 11.208 16.1451 7.8
    endloop
  endfacet
  facet normal 0 0 1
    outer loop
      vertex 10.1418 12.5139 7.8
      vertex 11.208 10.8549 7.8
      vertex 10.1418 14.4861 7.8
    endloop
  endfacet
  facet normal 0 0 1
    outer loop
      vertex 11.208 16.1451 7.8
      vertex 11.8 13.5 7.8
      vertex 13.0019 16.9644 7.8
    endloop
  endfacet
  facet normal 0 0 1
    outer loop
      vertex 11.208 16.1451 7.8
      vertex 11.208 10.8549 7.8
      vertex 11.8 13.5 7.8
    endloop
  endfacet
  facet normal 0 0 1
    outer loop
      vertex 13.0019 16.9644 7.8
      vertex 12.65 14.9722 7.8
      vertex 14.954 16.6837 7.8
    endloop
  endfacet
  facet normal 0 0 1
    outer loop
      vertex 12.65 14.9722 7.8
      vertex 14.35 14.9722 7.8
      vertex 14.954 16.6837 7.8
    endloop
  endfacet
  facet normal 0 0 1
    outer loop
      vertex 14.954 16.6837 7.8
      vertex 14.35 14.9722 7.8
      vertex 16.4444 15.3922 7.8
    endloop
  endfacet
  facet normal 0 0 1
    outer loop
      vertex 16.4444 15.3922 7.8
      vertex 15.2 13.5 7.8
      vertex 17 13.5 7.8
    endloop
  endfacet
  facet normal 0 0 1
    outer loop
      vertex 17 13.5 7.8
      vertex 14.35 12.0278 7.8
      vertex 16.4444 11.6078 7.8
    endloop
  endfacet
  facet normal 0 0 1
    outer loop
      vertex 11.8 13.5 7.8
      vertex 12.65 14.9722 7.8
      vertex 13.0019 16.9644 7.8
    endloop
  endfacet
  facet normal 0 0 1
    outer loop
      vertex 15.2 13.5 7.8
      vertex 14.35 12.0278 7.8
      vertex 17 13.5 7.8
    endloop
  endfacet
  facet normal 0 0 1
    outer loop
      vertex 12.65 12.0278 7.8
      vertex 11.8 13.5 7.8
      vertex 11.208 10.8549 7.8
    endloop
  endfacet
  facet normal 0 0 1
    outer loop
      vertex 11.208 41.8549 7.8
      vertex 13.0019 41.0356 7.8
      vertex 14.954 41.3163 7.8
    endloop
  endfacet
  facet normal 0 0 1
    outer loop
      vertex 14.35 43.0278 7.8
      vertex 11.208 41.8549 7.8
      vertex 16.4444 42.6078 7.8
    endloop
  endfacet
  facet normal 0 0 1
    outer loop
      vertex 16.4444 42.6078 7.8
      vertex 11.208 41.8549 7.8
      vertex 14.954 41.3163 7.8
    endloop
  endfacet
  facet normal 0 0 1
    outer loop
      vertex 14.35 43.0278 7.8
      vertex 12.65 43.0278 7.8
      vertex 11.208 41.8549 7.8
    endloop
  endfacet
  facet normal 0 0 1
    outer loop
      vertex 14.35 45.9722 7.8
      vertex 15.2 44.5 7.8
      vertex 16.4444 46.3922 7.8
    endloop
  endfacet
  facet normal 0 0 1
    outer loop
      vertex 10.1418 45.4861 7.8
      vertex 11.208 41.8549 7.8
      vertex 11.208 47.1451 7.8
    endloop
  endfacet
  facet normal 0 0 1
    outer loop
      vertex 10.1418 43.5139 7.8
      vertex 11.208 41.8549 7.8
      vertex 10.1418 45.4861 7.8
    endloop
  endfacet
  facet normal 0 0 1
    outer loop
      vertex 11.208 47.1451 7.8
      vertex 11.8 44.5 7.8
      vertex 13.0019 47.9644 7.8
    endloop
  endfacet
  facet normal 0 0 1
    outer loop
      vertex 11.208 47.1451 7.8
      vertex 11.208 41.8549 7.8
      vertex 11.8 44.5 7.8
    endloop
  endfacet
  facet normal 0 0 1
    outer loop
      vertex 13.0019 47.9644 7.8
      vertex 12.65 45.9722 7.8
      vertex 14.954 47.6837 7.8
    endloop
  endfacet
  facet normal 0 0 1
    outer loop
      vertex 12.65 45.9722 7.8
      vertex 14.35 45.9722 7.8
      vertex 14.954 47.6837 7.8
    endloop
  endfacet
  facet normal 0 0 1
    outer loop
      vertex 14.954 47.6837 7.8
      vertex 14.35 45.9722 7.8
      vertex 16.4444 46.3922 7.8
    endloop
  endfacet
  facet normal 0 0 1
    outer loop
      vertex 16.4444 46.3922 7.8
      vertex 15.2 44.5 7.8
      vertex 17 44.5 7.8
    endloop
  endfacet
  facet normal 0 0 1
    outer loop
      vertex 17 44.5 7.8
      vertex 14.35 43.0278 7.8
      vertex 16.4444 42.6078 7.8
    endloop
  endfacet
  facet normal 0 0 1
    outer loop
      vertex 11.8 44.5 7.8
      vertex 12.65 45.9722 7.8
      vertex 13.0019 47.9644 7.8
    endloop
  endfacet
  facet normal 0 0 1
    outer loop
      vertex 15.2 44.5 7.8
      vertex 14.35 43.0278 7.8
      vertex 17 44.5 7.8
    endloop
  endfacet
  facet normal 0 0 1
    outer loop
      vertex 12.65 43.0278 7.8
      vertex 11.8 44.5 7.8
      vertex 11.208 41.8549 7.8
    endloop
  endfacet
endsolid OpenSCAD_Model
